<svg width="400" height="120" viewBox="0 0 400 120" fill="none" xmlns="http://www.w3.org/2000/svg">
<g clip-path="url(#clip0_37_65)">
<path d="M17.9229 11.9927C19.244 11.9927 20.3743 12.0514 21.3138 12.1688C22.2826 12.2862 23.178 12.4917 24 12.7853C24.822 13.0495 25.6881 13.4165 26.5982 13.8862C26.7743 14.0037 26.8771 14.1064 26.9064 14.1945C26.9651 14.2532 27.0092 14.4734 27.0385 14.855L27.567 19.8752C27.567 19.9339 27.4789 19.9927 27.3028 20.0514C27.156 20.0807 27.0679 20.0367 27.0385 19.9193C26.3927 17.4826 25.3211 15.6624 23.8239 14.4587C22.356 13.2257 20.389 12.6092 17.9229 12.6092C15.3101 12.6092 13.0349 13.1523 11.0972 14.2385C9.15963 15.3248 7.64771 16.8661 6.56147 18.8624C5.50459 20.8587 4.97615 23.2073 4.97615 25.9083C4.97615 27.8165 5.31376 29.622 5.98899 31.3248C6.69358 33.0275 7.64771 34.5248 8.85138 35.8165C10.0844 37.1083 11.4789 38.1211 13.0349 38.855C14.5908 39.589 16.2495 39.956 18.011 39.956C20.5358 39.956 22.5615 39.3541 24.0881 38.1505C25.6147 36.9174 26.7009 35.1266 27.3468 32.778C27.3761 32.6899 27.4642 32.6605 27.611 32.6899C27.7872 32.7193 27.8752 32.7633 27.8752 32.822L27.5229 37.4899C27.4936 37.8422 27.4495 38.0624 27.3908 38.1505C27.3321 38.2385 27.2147 38.3413 27.0385 38.4587C25.4826 39.2807 24.0294 39.8385 22.6789 40.1321C21.3578 40.4257 19.7872 40.5725 17.967 40.5725C14.8844 40.5725 12.1541 39.9706 9.77615 38.767C7.39817 37.5339 5.53395 35.8165 4.18349 33.6147C2.83303 31.4128 2.1578 28.8587 2.1578 25.9523C2.1578 23.8385 2.53945 21.9303 3.30275 20.2275C4.09541 18.5248 5.19633 17.0569 6.6055 15.8239C8.04404 14.5908 9.71743 13.6514 11.6257 13.0055C13.5339 12.3303 15.633 11.9927 17.9229 11.9927ZM52.9552 40.5284C50.8414 40.5284 48.9185 40.1615 47.1864 39.4275C45.4836 38.6642 44.0157 37.622 42.7827 36.3009C41.579 34.9798 40.6396 33.4679 39.9643 31.7651C39.3185 30.033 38.9955 28.1982 38.9955 26.2606C38.9955 23.8826 39.4506 21.7982 40.3607 20.0073C41.3001 18.2165 42.5331 16.7339 44.0597 15.5596C45.5864 14.356 47.2597 13.4605 49.0799 12.8734C50.9001 12.2862 52.7056 11.9927 54.4964 11.9927C56.6689 11.9927 58.6065 12.389 60.3093 13.1817C62.0414 13.945 63.5093 14.9872 64.713 16.3083C65.9166 17.6294 66.8267 19.1266 67.4432 20.8C68.0891 22.4734 68.412 24.1908 68.412 25.9523C68.412 28.0073 68.001 29.9156 67.179 31.6771C66.357 33.4385 65.2267 34.9798 63.7882 36.3009C62.379 37.622 60.735 38.6642 58.8561 39.4275C57.0065 40.1615 55.0396 40.5284 52.9552 40.5284ZM54.5405 39.6477C56.5955 39.6477 58.4598 39.178 60.1331 38.2385C61.8065 37.2697 63.1276 35.8606 64.0964 34.011C65.0946 32.1321 65.5937 29.8569 65.5937 27.1853C65.5937 24.3963 65.0506 21.945 63.9643 19.8312C62.9075 17.6881 61.4102 16.0147 59.4726 14.811C57.535 13.578 55.2597 12.9615 52.6469 12.9615C49.2414 12.9615 46.5845 14.0183 44.6763 16.1321C42.768 18.2459 41.8139 21.1229 41.8139 24.7633C41.8139 26.8183 42.1075 28.756 42.6946 30.5761C43.3111 32.367 44.1772 33.9523 45.2928 35.3321C46.4377 36.6826 47.7882 37.7394 49.3442 38.5028C50.9001 39.2661 52.6322 39.6477 54.5405 39.6477ZM82.3552 35.4202V13.4899L83.324 13.578V35.4202C83.324 36.9174 83.5735 37.9743 84.0726 38.5908C84.5717 39.178 85.4377 39.4716 86.6708 39.4716C86.7588 39.4716 86.8029 39.5596 86.8029 39.7358C86.8029 39.9119 86.7588 40 86.6708 40C86.113 40 85.5258 39.9853 84.9093 39.956C84.3221 39.9266 83.6616 39.9119 82.9276 39.9119C82.223 39.9119 81.5478 39.9266 80.9019 39.956C80.2561 39.9853 79.6396 40 79.0524 40C78.9937 40 78.9643 39.9119 78.9643 39.7358C78.9643 39.5596 78.9937 39.4716 79.0524 39.4716C80.3442 39.4716 81.2102 39.178 81.6506 38.5908C82.1203 37.9743 82.3552 36.9174 82.3552 35.4202ZM104.506 40.4844C104.506 40.5431 104.432 40.5725 104.285 40.5725C104.139 40.6018 104.036 40.6018 103.977 40.5725L84.0726 16.0881C83.0744 14.8844 82.179 14.0771 81.3864 13.6661C80.623 13.2257 79.8891 13.0055 79.1845 13.0055C79.0964 13.0055 79.0524 12.9174 79.0524 12.7413C79.0524 12.5651 79.0964 12.4771 79.1845 12.4771C79.6836 12.4771 80.1974 12.4917 80.7258 12.5211C81.2542 12.5505 81.724 12.5651 82.135 12.5651C82.546 12.5651 82.9276 12.5505 83.2799 12.5211C83.6616 12.4917 83.9405 12.4771 84.1166 12.4771C84.4983 12.4771 84.7625 12.6532 84.9093 13.0055C85.0561 13.3284 85.4671 13.9156 86.1423 14.767L104.153 37.1376L104.506 40.4844ZM104.506 17.1009V40.4844L103.537 39.1193V17.1009C103.537 15.6037 103.302 14.5468 102.832 13.9303C102.362 13.3138 101.511 13.0055 100.278 13.0055C100.219 13.0055 100.19 12.9174 100.19 12.7413C100.19 12.5651 100.219 12.4771 100.278 12.4771C100.865 12.4771 101.452 12.5064 102.04 12.5651C102.656 12.5945 103.331 12.6092 104.065 12.6092C104.74 12.6092 105.416 12.5945 106.091 12.5651C106.766 12.5064 107.383 12.4771 107.94 12.4771C108.029 12.4771 108.073 12.5651 108.073 12.7413C108.073 12.9174 108.029 13.0055 107.94 13.0055C106.678 13.0055 105.783 13.3138 105.254 13.9303C104.755 14.5468 104.506 15.6037 104.506 17.1009ZM117.611 40C117.553 40 117.523 39.9119 117.523 39.7358C117.523 39.5596 117.553 39.4716 117.611 39.4716C118.727 39.4716 119.564 39.3982 120.121 39.2514C120.679 39.1046 121.046 38.811 121.222 38.3706C121.428 37.9303 121.531 37.2844 121.531 36.433V16.044C121.531 15.1927 121.428 14.5615 121.222 14.1505C121.046 13.7101 120.679 13.4165 120.121 13.2697C119.564 13.0936 118.727 13.0055 117.611 13.0055C117.553 13.0055 117.523 12.9174 117.523 12.7413C117.523 12.5651 117.553 12.4771 117.611 12.4771H135.05C135.314 12.4771 135.446 12.6092 135.446 12.8734L135.534 18.2018C135.534 18.2899 135.446 18.3339 135.27 18.3339C135.123 18.3339 135.05 18.2899 135.05 18.2018C135.05 16.6752 134.654 15.4862 133.861 14.6349C133.068 13.7541 132.026 13.3138 130.734 13.3138H127.696C126.11 13.3138 125.068 13.4899 124.569 13.8422C124.099 14.1945 123.865 14.9431 123.865 16.0881V36.2569C123.865 37.1376 123.982 37.8128 124.217 38.2826C124.481 38.7229 125.01 39.0312 125.802 39.2073C126.595 39.3835 127.784 39.4716 129.369 39.4716C129.457 39.4716 129.501 39.5596 129.501 39.7358C129.501 39.9119 129.457 40 129.369 40C128.43 40 127.402 39.9853 126.287 39.956C125.2 39.9266 124.011 39.9119 122.72 39.9119C121.78 39.9119 120.87 39.9266 119.989 39.956C119.109 39.9853 118.316 40 117.611 40ZM132.804 30.1798C132.804 28.8587 132.481 27.9339 131.835 27.4055C131.219 26.8771 130.103 26.6128 128.488 26.6128H122.764V25.7761H128.665C130.191 25.7761 131.248 25.5413 131.835 25.0716C132.452 24.6018 132.76 23.8239 132.76 22.7376C132.76 22.6789 132.848 22.6495 133.024 22.6495C133.2 22.6495 133.288 22.6789 133.288 22.7376C133.288 23.589 133.274 24.2495 133.244 24.7193C133.244 25.189 133.244 25.6881 133.244 26.2165C133.244 26.8624 133.259 27.5083 133.288 28.1541C133.318 28.7706 133.332 29.4459 133.332 30.1798C133.332 30.2385 133.244 30.2679 133.068 30.2679C132.892 30.2679 132.804 30.2385 132.804 30.1798ZM164.68 40H146.493C146.435 40 146.405 39.9119 146.405 39.7358C146.405 39.5596 146.435 39.4716 146.493 39.4716C147.609 39.4716 148.446 39.3982 149.003 39.2514C149.561 39.1046 149.928 38.811 150.104 38.3706C150.31 37.9303 150.412 37.2844 150.412 36.433V16.044C150.412 15.1927 150.31 14.5615 150.104 14.1505C149.928 13.7101 149.561 13.4165 149.003 13.2697C148.446 13.0936 147.609 13.0055 146.493 13.0055C146.435 13.0055 146.405 12.9174 146.405 12.7413C146.405 12.5651 146.435 12.4771 146.493 12.4771H163.932C164.196 12.4771 164.328 12.6092 164.328 12.8734L164.416 18.2018C164.416 18.2899 164.328 18.3339 164.152 18.3339C164.005 18.3339 163.932 18.2899 163.932 18.2018C163.932 16.6752 163.535 15.4862 162.743 14.6349C161.95 13.7541 160.908 13.3138 159.616 13.3138H156.578C155.491 13.3138 154.669 13.3872 154.112 13.5339C153.583 13.6807 153.216 13.9743 153.011 14.4147C152.835 14.8257 152.746 15.4569 152.746 16.3083V36.2569C152.746 37.0789 152.835 37.6954 153.011 38.1064C153.216 38.5174 153.583 38.7963 154.112 38.9431C154.669 39.0899 155.491 39.1633 156.578 39.1633H160.629C161.803 39.1633 162.816 38.6495 163.668 37.622C164.519 36.5945 165.047 35.244 165.253 33.5706C165.253 33.4826 165.341 33.4532 165.517 33.4826C165.693 33.4826 165.781 33.5266 165.781 33.6147C165.664 34.378 165.561 35.3028 165.473 36.389C165.414 37.4459 165.385 38.4294 165.385 39.3394C165.385 39.7798 165.15 40 164.68 40ZM162.214 29.6514C162.214 28.3303 161.935 27.4055 161.378 26.8771C160.82 26.3486 159.836 26.0844 158.427 26.0844H151.646V25.2477H158.559C159.91 25.2477 160.849 25.0275 161.378 24.5872C161.906 24.1174 162.17 23.3248 162.17 22.2092C162.17 22.1505 162.258 22.1211 162.435 22.1211C162.611 22.1211 162.699 22.1505 162.699 22.2092C162.699 23.0605 162.684 23.7211 162.655 24.1908C162.655 24.6605 162.655 25.1596 162.655 25.6881C162.655 26.3339 162.669 26.9798 162.699 27.6257C162.728 28.2422 162.743 28.9174 162.743 29.6514C162.743 29.7101 162.655 29.7394 162.479 29.7394C162.302 29.7394 162.214 29.7101 162.214 29.6514ZM192.565 11.9927C193.886 11.9927 195.016 12.0514 195.955 12.1688C196.924 12.2862 197.82 12.4917 198.642 12.7853C199.464 13.0495 200.33 13.4165 201.24 13.8862C201.416 14.0037 201.519 14.1064 201.548 14.1945C201.607 14.2532 201.651 14.4734 201.68 14.855L202.209 19.8752C202.209 19.9339 202.121 19.9927 201.944 20.0514C201.798 20.0807 201.71 20.0367 201.68 19.9193C201.034 17.4826 199.963 15.6624 198.465 14.4587C196.998 13.2257 195.031 12.6092 192.565 12.6092C189.952 12.6092 187.676 13.1523 185.739 14.2385C183.801 15.3248 182.289 16.8661 181.203 18.8624C180.146 20.8587 179.618 23.2073 179.618 25.9083C179.618 27.8165 179.955 29.622 180.631 31.3248C181.335 33.0275 182.289 34.5248 183.493 35.8165C184.726 37.1083 186.121 38.1211 187.676 38.855C189.232 39.589 190.891 39.956 192.653 39.956C195.177 39.956 197.203 39.3541 198.73 38.1505C200.256 36.9174 201.343 35.1266 201.988 32.778C202.018 32.6899 202.106 32.6605 202.253 32.6899C202.429 32.7193 202.517 32.7633 202.517 32.822L202.165 37.4899C202.135 37.8422 202.091 38.0624 202.032 38.1505C201.974 38.2385 201.856 38.3413 201.68 38.4587C200.124 39.2807 198.671 39.8385 197.321 40.1321C195.999 40.4257 194.429 40.5725 192.609 40.5725C189.526 40.5725 186.796 39.9706 184.418 38.767C182.04 37.5339 180.176 35.8165 178.825 33.6147C177.475 31.4128 176.799 28.8587 176.799 25.9523C176.799 23.8385 177.181 21.9303 177.944 20.2275C178.737 18.5248 179.838 17.0569 181.247 15.8239C182.686 14.5908 184.359 13.6514 186.267 13.0055C188.176 12.3303 190.275 11.9927 192.565 11.9927ZM229.402 11.9927C230.723 11.9927 231.854 12.0514 232.793 12.1688C233.762 12.2862 234.657 12.4917 235.479 12.7853C236.301 13.0495 237.167 13.4165 238.078 13.8862C238.254 14.0037 238.356 14.1064 238.386 14.1945C238.444 14.2532 238.489 14.4734 238.518 14.855L239.046 19.8752C239.046 19.9339 238.958 19.9927 238.782 20.0514C238.635 20.0807 238.547 20.0367 238.518 19.9193C237.872 17.4826 236.8 15.6624 235.303 14.4587C233.835 13.2257 231.868 12.6092 229.402 12.6092C226.789 12.6092 224.514 13.1523 222.577 14.2385C220.639 15.3248 219.127 16.8661 218.041 18.8624C216.984 20.8587 216.456 23.2073 216.456 25.9083C216.456 27.8165 216.793 29.622 217.468 31.3248C218.173 33.0275 219.127 34.5248 220.331 35.8165C221.564 37.1083 222.958 38.1211 224.514 38.855C226.07 39.589 227.729 39.956 229.49 39.956C232.015 39.956 234.041 39.3541 235.567 38.1505C237.094 36.9174 238.18 35.1266 238.826 32.778C238.856 32.6899 238.944 32.6605 239.09 32.6899C239.267 32.7193 239.355 32.7633 239.355 32.822L239.002 37.4899C238.973 37.8422 238.929 38.0624 238.87 38.1505C238.811 38.2385 238.694 38.3413 238.518 38.4587C236.962 39.2807 235.509 39.8385 234.158 40.1321C232.837 40.4257 231.267 40.5725 229.446 40.5725C226.364 40.5725 223.633 39.9706 221.256 38.767C218.878 37.5339 217.013 35.8165 215.663 33.6147C214.312 31.4128 213.637 28.8587 213.637 25.9523C213.637 23.8385 214.019 21.9303 214.782 20.2275C215.575 18.5248 216.676 17.0569 218.085 15.8239C219.523 14.5908 221.197 13.6514 223.105 13.0055C225.013 12.3303 227.112 11.9927 229.402 11.9927ZM256.772 36.433C256.772 37.2844 256.86 37.9303 257.036 38.3706C257.213 38.811 257.579 39.1046 258.137 39.2514C258.724 39.3982 259.576 39.4716 260.691 39.4716C260.75 39.4716 260.779 39.5596 260.779 39.7358C260.779 39.9119 260.75 40 260.691 40C259.987 40 259.209 39.9853 258.357 39.956C257.506 39.9266 256.567 39.9119 255.539 39.9119C254.57 39.9119 253.646 39.9266 252.765 39.956C251.913 39.9853 251.135 40 250.431 40C250.343 40 250.299 39.9119 250.299 39.7358C250.299 39.5596 250.343 39.4716 250.431 39.4716C251.546 39.4716 252.383 39.3982 252.941 39.2514C253.528 39.1046 253.91 38.811 254.086 38.3706C254.291 37.9303 254.394 37.2844 254.394 36.433V16.044C254.394 15.1927 254.291 14.5615 254.086 14.1505C253.91 13.7101 253.528 13.4165 252.941 13.2697C252.383 13.0936 251.546 13.0055 250.431 13.0055C250.343 13.0055 250.299 12.9174 250.299 12.7413C250.299 12.5651 250.343 12.4771 250.431 12.4771C251.135 12.4771 251.913 12.5064 252.765 12.5651C253.646 12.5945 254.57 12.6092 255.539 12.6092C256.567 12.6092 257.506 12.5945 258.357 12.5651C259.238 12.5064 260.016 12.4771 260.691 12.4771C260.75 12.4771 260.779 12.5651 260.779 12.7413C260.779 12.9174 260.75 13.0055 260.691 13.0055C259.576 13.0055 258.739 13.0936 258.181 13.2697C257.624 13.4459 257.242 13.7541 257.036 14.1945C256.86 14.6349 256.772 15.2807 256.772 16.1321V36.433ZM285.576 40.5284C283.462 40.5284 281.539 40.1615 279.807 39.4275C278.104 38.6642 276.636 37.622 275.403 36.3009C274.199 34.9798 273.26 33.4679 272.585 31.7651C271.939 30.033 271.616 28.1982 271.616 26.2606C271.616 23.8826 272.071 21.7982 272.981 20.0073C273.921 18.2165 275.154 16.7339 276.68 15.5596C278.207 14.356 279.88 13.4605 281.7 12.8734C283.521 12.2862 285.326 11.9927 287.117 11.9927C289.289 11.9927 291.227 12.389 292.93 13.1817C294.662 13.945 296.13 14.9872 297.333 16.3083C298.537 17.6294 299.447 19.1266 300.064 20.8C300.71 22.4734 301.032 24.1908 301.032 25.9523C301.032 28.0073 300.621 29.9156 299.799 31.6771C298.977 33.4385 297.847 34.9798 296.409 36.3009C294.999 37.622 293.355 38.6642 291.476 39.4275C289.627 40.1615 287.66 40.5284 285.576 40.5284ZM287.161 39.6477C289.216 39.6477 291.08 39.178 292.754 38.2385C294.427 37.2697 295.748 35.8606 296.717 34.011C297.715 32.1321 298.214 29.8569 298.214 27.1853C298.214 24.3963 297.671 21.945 296.585 19.8312C295.528 17.6881 294.031 16.0147 292.093 14.811C290.155 13.578 287.88 12.9615 285.267 12.9615C281.862 12.9615 279.205 14.0183 277.297 16.1321C275.388 18.2459 274.434 21.1229 274.434 24.7633C274.434 26.8183 274.728 28.756 275.315 30.5761C275.932 32.367 276.798 33.9523 277.913 35.3321C279.058 36.6826 280.409 37.7394 281.965 38.5028C283.521 39.2661 285.253 39.6477 287.161 39.6477ZM314.976 35.4202V13.4899L315.944 13.578V35.4202C315.944 36.9174 316.194 37.9743 316.693 38.5908C317.192 39.178 318.058 39.4716 319.291 39.4716C319.379 39.4716 319.423 39.5596 319.423 39.7358C319.423 39.9119 319.379 40 319.291 40C318.733 40 318.146 39.9853 317.53 39.956C316.943 39.9266 316.282 39.9119 315.548 39.9119C314.843 39.9119 314.168 39.9266 313.522 39.956C312.876 39.9853 312.26 40 311.673 40C311.614 40 311.585 39.9119 311.585 39.7358C311.585 39.5596 311.614 39.4716 311.673 39.4716C312.965 39.4716 313.831 39.178 314.271 38.5908C314.741 37.9743 314.976 36.9174 314.976 35.4202ZM337.126 40.4844C337.126 40.5431 337.053 40.5725 336.906 40.5725C336.759 40.6018 336.656 40.6018 336.598 40.5725L316.693 16.0881C315.695 14.8844 314.799 14.0771 314.007 13.6661C313.243 13.2257 312.51 13.0055 311.805 13.0055C311.717 13.0055 311.673 12.9174 311.673 12.7413C311.673 12.5651 311.717 12.4771 311.805 12.4771C312.304 12.4771 312.818 12.4917 313.346 12.5211C313.875 12.5505 314.344 12.5651 314.755 12.5651C315.166 12.5651 315.548 12.5505 315.9 12.5211C316.282 12.4917 316.561 12.4771 316.737 12.4771C317.119 12.4771 317.383 12.6532 317.53 13.0055C317.676 13.3284 318.087 13.9156 318.763 14.767L336.774 37.1376L337.126 40.4844ZM337.126 17.1009V40.4844L336.157 39.1193V17.1009C336.157 15.6037 335.922 14.5468 335.453 13.9303C334.983 13.3138 334.132 13.0055 332.899 13.0055C332.84 13.0055 332.81 12.9174 332.81 12.7413C332.81 12.5651 332.84 12.4771 332.899 12.4771C333.486 12.4771 334.073 12.5064 334.66 12.5651C335.276 12.5945 335.952 12.6092 336.686 12.6092C337.361 12.6092 338.036 12.5945 338.711 12.5651C339.387 12.5064 340.003 12.4771 340.561 12.4771C340.649 12.4771 340.693 12.5651 340.693 12.7413C340.693 12.9174 340.649 13.0055 340.561 13.0055C339.299 13.0055 338.403 13.3138 337.875 13.9303C337.376 14.5468 337.126 15.6037 337.126 17.1009ZM368.419 40H350.232C350.173 40 350.144 39.9119 350.144 39.7358C350.144 39.5596 350.173 39.4716 350.232 39.4716C351.347 39.4716 352.184 39.3982 352.742 39.2514C353.3 39.1046 353.667 38.811 353.843 38.3706C354.048 37.9303 354.151 37.2844 354.151 36.433V16.044C354.151 15.1927 354.048 14.5615 353.843 14.1505C353.667 13.7101 353.3 13.4165 352.742 13.2697C352.184 13.0936 351.347 13.0055 350.232 13.0055C350.173 13.0055 350.144 12.9174 350.144 12.7413C350.144 12.5651 350.173 12.4771 350.232 12.4771H367.67C367.935 12.4771 368.067 12.6092 368.067 12.8734L368.155 18.2018C368.155 18.2899 368.067 18.3339 367.89 18.3339C367.744 18.3339 367.67 18.2899 367.67 18.2018C367.67 16.6752 367.274 15.4862 366.481 14.6349C365.689 13.7541 364.646 13.3138 363.355 13.3138H360.316C359.23 13.3138 358.408 13.3872 357.85 13.5339C357.322 13.6807 356.955 13.9743 356.749 14.4147C356.573 14.8257 356.485 15.4569 356.485 16.3083V36.2569C356.485 37.0789 356.573 37.6954 356.749 38.1064C356.955 38.5174 357.322 38.7963 357.85 38.9431C358.408 39.0899 359.23 39.1633 360.316 39.1633H364.368C365.542 39.1633 366.555 38.6495 367.406 37.622C368.257 36.5945 368.786 35.244 368.991 33.5706C368.991 33.4826 369.079 33.4532 369.256 33.4826C369.432 33.4826 369.52 33.5266 369.52 33.6147C369.402 34.378 369.3 35.3028 369.212 36.389C369.153 37.4459 369.124 38.4294 369.124 39.3394C369.124 39.7798 368.889 40 368.419 40ZM365.953 29.6514C365.953 28.3303 365.674 27.4055 365.116 26.8771C364.558 26.3486 363.575 26.0844 362.166 26.0844H355.384V25.2477H362.298C363.648 25.2477 364.588 25.0275 365.116 24.5872C365.645 24.1174 365.909 23.3248 365.909 22.2092C365.909 22.1505 365.997 22.1211 366.173 22.1211C366.349 22.1211 366.437 22.1505 366.437 22.2092C366.437 23.0605 366.423 23.7211 366.393 24.1908C366.393 24.6605 366.393 25.1596 366.393 25.6881C366.393 26.3339 366.408 26.9798 366.437 27.6257C366.467 28.2422 366.481 28.9174 366.481 29.6514C366.481 29.7101 366.393 29.7394 366.217 29.7394C366.041 29.7394 365.953 29.7101 365.953 29.6514ZM384.457 17.8055C384.457 19.0385 384.751 20.0954 385.338 20.9761C385.954 21.8275 386.732 22.5761 387.672 23.222C388.641 23.8679 389.654 24.4991 390.71 25.1156C391.797 25.7321 392.839 26.3927 393.837 27.0972C394.835 27.7725 395.657 28.5945 396.303 29.5633C396.978 30.5028 397.316 31.6771 397.316 33.0862C397.316 34.4367 396.978 35.6844 396.303 36.8294C395.657 37.945 394.674 38.8404 393.353 39.5156C392.032 40.1908 390.373 40.5284 388.376 40.5284C387.731 40.5284 387.085 40.4844 386.439 40.3963C385.822 40.3083 385.176 40.1615 384.501 39.956C383.855 39.7211 383.151 39.4128 382.387 39.0312C382.241 38.9431 382.138 38.8404 382.079 38.7229C382.05 38.5761 382.021 38.4 381.991 38.1945L381.331 32.4697C381.301 32.3229 381.36 32.2495 381.507 32.2495C381.683 32.2202 381.786 32.2642 381.815 32.3817C381.932 33.2624 382.167 34.1431 382.52 35.0239C382.872 35.9046 383.342 36.7119 383.929 37.4459C384.545 38.1798 385.294 38.7817 386.175 39.2514C387.085 39.6917 388.142 39.9119 389.345 39.9119C390.255 39.9119 391.136 39.7505 391.987 39.4275C392.839 39.0752 393.529 38.5174 394.057 37.7541C394.615 36.9908 394.894 35.9486 394.894 34.6275C394.894 33.189 394.571 32 393.925 31.0606C393.309 30.0917 392.516 29.2697 391.547 28.5945C390.578 27.8899 389.551 27.2294 388.465 26.6128C387.437 25.9963 386.439 25.3505 385.47 24.6752C384.501 24 383.709 23.2073 383.092 22.2972C382.505 21.3578 382.211 20.1982 382.211 18.8183C382.211 17.2917 382.593 16.0294 383.356 15.0312C384.12 14.0037 385.103 13.2404 386.307 12.7413C387.54 12.2422 388.817 11.9927 390.138 11.9927C390.901 11.9927 391.694 12.0807 392.516 12.2569C393.367 12.4037 394.248 12.6679 395.158 13.0495C395.393 13.1376 395.554 13.255 395.643 13.4018C395.76 13.5193 395.819 13.6514 395.819 13.7982L396.215 18.4661C396.215 18.5835 396.127 18.6422 395.951 18.6422C395.804 18.6422 395.716 18.5835 395.687 18.4661C395.628 17.8202 395.466 17.1596 395.202 16.4844C394.967 15.7798 394.6 15.1339 394.101 14.5468C393.632 13.9596 393.015 13.4899 392.252 13.1376C391.518 12.756 390.622 12.5651 389.565 12.5651C388.303 12.5651 387.29 12.8294 386.527 13.3578C385.793 13.8862 385.265 14.5468 384.942 15.3394C384.619 16.1321 384.457 16.9541 384.457 17.8055Z" fill="#2D2926"/>
<line y1="42.0826" x2="400" y2="42.0826" stroke="#C5A059" stroke-width="1.83486"/>
<path d="M176.963 53.6558C176.963 55.98 177.544 58.0289 178.706 59.8026C179.93 61.5151 181.489 63.0748 183.385 64.4815C185.343 65.8882 187.391 67.295 189.532 68.7017C191.856 70.1696 194.058 71.7292 196.138 73.3806C198.278 74.9708 200.021 76.8362 201.367 78.9769C202.774 81.0564 203.477 83.5641 203.477 86.4999C203.477 89.7414 202.59 92.5855 200.817 95.032C199.104 97.4785 196.749 99.4051 193.752 100.812C190.817 102.157 187.453 102.83 183.661 102.83C181.826 102.83 179.899 102.647 177.881 102.28C175.924 101.913 174.119 101.454 172.468 100.904C170.878 100.353 169.716 99.772 168.982 99.1604C168.737 98.9769 168.523 98.7934 168.339 98.61C168.156 98.3653 168.064 97.9677 168.064 97.4173L167.789 82.8301C167.728 82.5243 167.85 82.3714 168.156 82.3714C168.523 82.3103 168.737 82.402 168.798 82.6466C169.716 84.5427 170.725 86.561 171.826 88.7017C172.927 90.7812 174.15 92.7078 175.495 94.4815C176.902 96.2552 178.462 97.7231 180.174 98.8852C181.887 99.9861 183.844 100.537 186.046 100.537C187.453 100.537 188.798 100.292 190.083 99.8026C191.367 99.3133 192.407 98.4265 193.202 97.1421C194.058 95.8577 194.486 94.084 194.486 91.821C194.486 88.9463 193.844 86.4999 192.56 84.4815C191.275 82.402 189.624 80.5977 187.606 79.0687C185.587 77.4785 183.477 75.98 181.275 74.5733C179.135 73.1665 177.086 71.7292 175.128 70.2613C173.171 68.7323 171.581 67.0197 170.358 65.1237C169.135 63.1665 168.523 60.8424 168.523 58.1512C168.523 54.7262 169.471 51.9433 171.367 49.8026C173.324 47.6008 175.771 45.98 178.706 44.9402C181.703 43.9005 184.731 43.3806 187.789 43.3806C189.991 43.3806 192.193 43.5947 194.394 44.0228C196.596 44.3898 198.339 44.8485 199.624 45.3989C200.235 45.6436 200.602 45.9188 200.725 46.2246C200.908 46.5304 201 46.8668 201 47.2338V60.72C201 60.9035 200.847 61.0564 200.541 61.1788C200.297 61.2399 200.113 61.1788 199.991 60.9953C199.624 60.2613 199.104 59.0687 198.431 57.4173C197.758 55.7048 196.872 53.9311 195.771 52.0962C194.67 50.2613 193.263 48.7017 191.55 47.4173C189.838 46.0717 187.758 45.3989 185.312 45.3989C183.783 45.3989 182.376 45.7048 181.092 46.3164C179.869 46.928 178.859 47.8454 178.064 49.0687C177.33 50.2307 176.963 51.7598 176.963 53.6558Z" fill="#2D2926"/>
<path d="M237.957 44.7315C238.14 44.7315 238.232 44.915 238.232 45.282C238.232 45.649 238.14 45.8324 237.957 45.8324C235.694 45.8324 233.553 46.811 231.535 48.7682C229.577 50.7254 227.987 53.3554 226.764 56.6581L209.791 101.979C209.73 102.224 209.394 102.346 208.782 102.346C208.232 102.346 207.895 102.224 207.773 101.979L184.379 52.3462C183.339 50.2055 182.268 48.5847 181.168 47.4838C180.067 46.3829 178.813 45.8324 177.406 45.8324C177.223 45.8324 177.131 45.649 177.131 45.282C177.131 44.915 177.223 44.7315 177.406 44.7315C178.14 44.7315 178.691 44.7621 179.057 44.8233C179.486 44.8844 180.036 44.9456 180.709 45.0068C181.443 45.0068 182.574 45.0068 184.103 45.0068C187.528 45.0068 190.311 45.0068 192.452 45.0068C194.593 44.9456 196.336 44.8844 197.681 44.8233C199.027 44.7621 200.189 44.7315 201.168 44.7315C201.351 44.7315 201.443 44.915 201.443 45.282C201.443 45.649 201.351 45.8324 201.168 45.8324C198.538 45.8324 196.794 46.5664 195.938 48.0343C195.082 49.5022 195.235 51.4899 196.397 53.9976L213.094 89.5939L208.782 97.1169L224.195 56.3829C225.296 53.386 225.357 50.8783 224.379 48.86C223.461 46.8416 221.504 45.8324 218.507 45.8324C218.324 45.8324 218.232 45.649 218.232 45.282C218.232 44.915 218.324 44.7315 218.507 44.7315C220.281 44.7315 221.963 44.7927 223.553 44.915C225.143 44.9762 227.253 45.0068 229.883 45.0068C231.596 45.0068 232.972 44.9762 234.012 44.915C235.113 44.7927 236.428 44.7315 237.957 44.7315Z" fill="#927C51"/>
</g>
<defs>
<clipPath id="clip0_37_65">
<rect width="400" height="120" fill="white"/>
</clipPath>
</defs>
</svg>
