<svg width="104" height="100" viewBox="0 0 104 100" fill="none" xmlns="http://www.w3.org/2000/svg">
<g clip-path="url(#clip0_37_64)">
<path d="M18.9549 24.8238C18.9549 27.9385 19.7336 30.6844 21.291 33.0615C22.9303 35.3566 25.0205 37.4467 27.5615 39.332C30.1844 41.2172 32.9303 43.1025 35.7992 44.9877C38.9139 46.9549 41.8647 49.0451 44.6516 51.2582C47.5205 53.3893 49.8565 55.8893 51.6598 58.7582C53.5451 61.5451 54.4877 64.9057 54.4877 68.8402C54.4877 73.1844 53.2992 76.9959 50.9221 80.2746C48.627 83.5533 45.4713 86.1352 41.4549 88.0205C37.5205 89.8238 33.0123 90.7254 27.9303 90.7254C25.4713 90.7254 22.8893 90.4795 20.1844 89.9877C17.5615 89.4959 15.1434 88.8811 12.9303 88.1434C10.7992 87.4057 9.24179 86.627 8.25818 85.8074C7.93032 85.5615 7.64343 85.3156 7.39753 85.0697C7.15163 84.7418 7.02868 84.209 7.02868 83.4713L6.65982 63.9221C6.57786 63.5123 6.74179 63.3074 7.15163 63.3074C7.64343 63.2254 7.93032 63.3484 8.01228 63.6762C9.24179 66.2172 10.5942 68.9221 12.0697 71.791C13.5451 74.5779 15.1844 77.1598 16.9877 79.5369C18.8729 81.9139 20.9631 83.8811 23.2582 85.4385C25.5533 86.9139 28.1762 87.6516 31.127 87.6516C33.0123 87.6516 34.8156 87.3238 36.5369 86.668C38.2582 86.0123 39.6516 84.8238 40.7172 83.1025C41.8647 81.3811 42.4385 79.0041 42.4385 75.9713C42.4385 72.1189 41.5779 68.8402 39.8565 66.1352C38.1352 63.3484 35.9221 60.9303 33.2172 58.8811C30.5123 56.75 27.6844 54.7418 24.7336 52.8566C21.8647 50.9713 19.1188 49.0451 16.4959 47.0779C13.8729 45.0287 11.7418 42.7336 10.1024 40.1926C8.4631 37.5697 7.64343 34.4549 7.64343 30.8484C7.64343 26.2582 8.91392 22.5287 11.4549 19.6598C14.0779 16.709 17.3565 14.5369 21.291 13.1434C25.3074 11.75 29.3647 11.0533 33.4631 11.0533C36.4139 11.0533 39.3647 11.3402 42.3156 11.9139C45.2664 12.4057 47.6024 13.0205 49.3238 13.7582C50.1434 14.0861 50.6352 14.4549 50.7992 14.8648C51.0451 15.2746 51.168 15.7254 51.168 16.2172V34.291C51.168 34.5369 50.9631 34.7418 50.5533 34.9057C50.2254 34.9877 49.9795 34.9057 49.8156 34.6598C49.3238 33.6762 48.627 32.0779 47.7254 29.8648C46.8238 27.5697 45.6352 25.1926 44.1598 22.7336C42.6844 20.2746 40.7992 18.1844 38.5041 16.4631C36.209 14.6598 33.4221 13.7582 30.1434 13.7582C28.0943 13.7582 26.209 14.168 24.4877 14.9877C22.8483 15.8074 21.4959 17.0369 20.4303 18.6762C19.4467 20.2336 18.9549 22.2828 18.9549 24.8238Z" fill="#2D2926"/>
<path d="M101.455 12.4057C101.701 12.4057 101.824 12.6516 101.824 13.1434C101.824 13.6352 101.701 13.8811 101.455 13.8811C98.4221 13.8811 95.5533 15.1926 92.8484 17.8156C90.2254 20.4385 88.0943 23.9631 86.4549 28.3893L63.709 89.127C63.6271 89.4549 63.1762 89.6189 62.3566 89.6189C61.6189 89.6189 61.168 89.4549 61.0041 89.127L29.6516 22.6106C28.2582 19.7418 26.8238 17.5697 25.3484 16.0943C23.873 14.6188 22.1926 13.8811 20.3074 13.8811C20.0615 13.8811 19.9385 13.6352 19.9385 13.1434C19.9385 12.6516 20.0615 12.4057 20.3074 12.4057C21.291 12.4057 22.0287 12.4467 22.5205 12.5287C23.0943 12.6107 23.832 12.6926 24.7336 12.7746C25.7172 12.7746 27.2336 12.7746 29.2828 12.7746C33.873 12.7746 37.6025 12.7746 40.4713 12.7746C43.3402 12.6926 45.6762 12.6107 47.4795 12.5287C49.2828 12.4467 50.8402 12.4057 52.1516 12.4057C52.3975 12.4057 52.5205 12.6516 52.5205 13.1434C52.5205 13.6352 52.3975 13.8811 52.1516 13.8811C48.6271 13.8811 46.291 14.8647 45.1434 16.832C43.9959 18.7992 44.2008 21.4631 45.7582 24.8238L68.1353 72.5287L62.3566 82.6107L83.0123 28.0205C84.4877 24.0041 84.5697 20.6434 83.2582 17.9385C82.0287 15.2336 79.4057 13.8811 75.3893 13.8811C75.1434 13.8811 75.0205 13.6352 75.0205 13.1434C75.0205 12.6516 75.1434 12.4057 75.3893 12.4057C77.7664 12.4057 80.0205 12.4877 82.1516 12.6516C84.2828 12.7336 87.1107 12.7746 90.6353 12.7746C92.9303 12.7746 94.7746 12.7336 96.168 12.6516C97.6435 12.4877 99.4057 12.4057 101.455 12.4057Z" fill="#927C51"/>
</g>
<defs>
<clipPath id="clip0_37_64">
<rect width="104" height="100" fill="white"/>
</clipPath>
</defs>
</svg>
